<svg width="256" height="51" viewBox="0 0 256 51" fill="none" xmlns="http://www.w3.org/2000/svg">
<path d="M127.805 8.03796H152.833L150.031 16.278H128.44C128.44 16.278 126.337 16.1196 125.515 18.7005C124.693 21.2814 126.379 21.836 126.379 21.836H141.377C141.377 21.836 150.297 22.3923 146.67 33.0702C143.042 43.7481 133.62 44.1533 133.62 44.1533H71.8997L74.6543 36.1224H133.62C133.62 36.1224 136.277 35.6646 136.705 33.2594C137.134 30.8543 134.823 30.3572 134.823 30.3572H121.175C121.175 30.3572 111.53 29.3631 115.583 18.7005C119.637 8.03796 127.805 8.03796 127.805 8.03796Z" fill="url(#paint0_linear_52_53)"/>
<path d="M192.908 8.16003C192.674 8.33994 192.402 8.55373 192.103 8.80261C191.07 9.6622 189.693 10.931 188.319 12.5702C185.573 15.8446 182.804 20.6342 182.843 26.6132C182.882 32.5544 185.035 37.1734 187.174 40.3016C188.243 41.8656 189.311 43.0602 190.113 43.8651C190.171 43.9239 190.231 43.9784 190.286 44.0331H188.769L187.903 43.7606C187.897 43.707 187.892 43.644 187.881 43.5741C187.843 43.3386 187.768 43.0134 187.621 42.6356C187.327 41.8761 186.745 40.9133 185.607 40.0458C185.138 39.6889 184.637 39.378 184.139 39.1073C184.143 39.0837 184.15 39.0595 184.155 39.0341C184.202 38.7543 184.24 38.3624 184.203 37.913C184.13 37.004 183.75 35.8588 182.556 34.9491C182.43 34.8531 182.304 34.7597 182.18 34.6698C182.207 34.561 182.242 34.4098 182.277 34.2264C182.348 33.8442 182.421 33.3134 182.423 32.7255C182.428 31.6906 182.21 30.3776 181.268 29.4325C181.311 29.3291 181.364 29.203 181.418 29.0565C181.568 28.6486 181.747 28.0812 181.857 27.4559C182.023 26.5066 182.047 25.2913 181.423 24.3339C181.497 24.2129 181.595 24.0507 181.702 23.8553C181.941 23.4216 182.24 22.8189 182.472 22.1581C182.701 21.5032 182.877 20.7561 182.838 20.0428C182.819 19.691 182.745 19.3419 182.599 19.0165C182.665 18.9451 182.739 18.8674 182.816 18.7811C183.164 18.3901 183.618 17.8511 184.025 17.2704C184.426 16.6982 184.809 16.0478 184.983 15.4384C185.07 15.1338 185.113 14.7968 185.055 14.4764C185.169 14.382 185.305 14.27 185.454 14.1405C185.903 13.7516 186.49 13.2164 187.032 12.6405C187.565 12.0729 188.087 11.4309 188.373 10.83C188.395 10.7849 188.412 10.7377 188.432 10.6913L191.802 8.16003H192.908ZM195.187 9.27429C194.72 9.40453 194.27 9.5472 193.856 9.703C193.378 9.88308 192.934 10.0857 192.566 10.3143C192.204 10.5392 191.877 10.8134 191.677 11.1503C191.112 12.105 190.803 12.647 190.636 12.952C190.567 13.0785 190.52 13.1669 190.49 13.2274C190.159 13.391 189.843 13.5656 189.559 13.7499C189.21 13.9764 188.889 14.2289 188.643 14.5077C188.397 14.7856 188.202 15.1175 188.149 15.4969C188.005 16.5266 188.003 17.2293 188.041 17.6874C188.043 17.713 188.048 17.7384 188.05 17.7626C187.604 18.0399 187.168 18.347 186.798 18.6776C186.264 19.1553 185.785 19.7482 185.69 20.4286C185.538 21.5171 185.704 22.3519 185.92 22.9247C186.004 23.1462 186.096 23.3265 186.177 23.4667C186.017 23.619 185.864 23.7753 185.721 23.9335C185.24 24.4675 184.823 25.0904 184.732 25.7421C184.568 26.9157 185.017 27.8474 185.481 28.4647C185.626 28.6586 185.776 28.8243 185.912 28.9608C185.557 29.4229 185.268 29.9578 185.187 30.5409C185.015 31.7728 185.706 32.7906 186.332 33.4452C186.579 33.7028 186.83 33.9191 187.045 34.0878C186.87 34.4122 186.739 34.7771 186.682 35.1835C186.506 36.4466 187.362 37.5365 188.092 38.2313C188.474 38.5946 188.863 38.8889 189.155 39.0917C189.206 39.1271 189.255 39.1583 189.3 39.1884C189.289 39.2485 189.281 39.3104 189.272 39.3729C189.177 40.055 189.45 40.661 189.827 41.1493C190.205 41.6368 190.722 42.0541 191.219 42.3885C191.721 42.7257 192.228 42.9948 192.607 43.1786C192.686 43.2169 192.761 43.2491 192.828 43.2802C192.866 43.5546 192.946 43.8014 193.024 43.994C193.029 44.0074 193.036 44.0201 193.041 44.0331H191.752C191.749 44.0306 191.746 44.0278 191.743 44.0253C191.523 43.833 191.205 43.5435 190.822 43.1591C190.055 42.3895 189.028 41.2419 187.999 39.7372C185.942 36.7279 183.88 32.3002 183.843 26.6073C183.806 20.9519 186.425 16.3849 189.084 13.2128C190.412 11.629 191.744 10.4018 192.742 9.57117C193.241 9.15615 193.657 8.84035 193.946 8.62976C194.09 8.52469 194.203 8.44558 194.279 8.39343C194.316 8.36761 194.345 8.34837 194.364 8.33582C194.373 8.32957 194.38 8.32404 194.384 8.32117C194.386 8.31979 194.388 8.31881 194.389 8.31824H194.39L194.286 8.16003H196.231L195.187 9.27429ZM194.666 41.3231C196.797 43.3391 198.704 44.0331 198.704 44.0331H194.113L194.149 44.0087V44.0096H194.15L194.148 44.0077C194.146 44.0045 194.142 43.9982 194.137 43.9901C194.127 43.9734 194.111 43.9466 194.091 43.912C194.052 43.8418 194 43.7401 193.951 43.619C193.848 43.3667 193.778 43.075 193.815 42.8134C193.851 42.555 194.056 42.1713 194.311 41.7997C194.43 41.6262 194.547 41.4729 194.634 41.3641C194.646 41.3498 194.656 41.3358 194.666 41.3231ZM182.968 39.6327C183.649 39.9546 184.363 40.3553 185 40.8407C185.978 41.5854 186.455 42.3915 186.69 42.9969C186.728 43.0956 186.759 43.1897 186.785 43.2772C185.782 42.6067 184.343 41.447 182.968 39.6327ZM191.581 37.3485C192.318 38.6582 193.142 39.7329 193.959 40.6093C193.932 40.6425 193.896 40.6869 193.854 40.7391C193.756 40.8615 193.623 41.0346 193.487 41.2333C193.304 41.4997 193.082 41.8593 192.944 42.2294C192.606 42.0616 192.186 41.8335 191.777 41.5585C191.322 41.2528 190.903 40.9049 190.618 40.537C190.334 40.1697 190.219 39.8297 190.263 39.5106C190.386 38.6266 190.755 38.0726 191.078 37.7421C191.242 37.5751 191.397 37.4619 191.507 37.3925C191.535 37.3749 191.56 37.3606 191.581 37.3485ZM180.279 34.6161C180.795 34.9255 181.366 35.2999 181.951 35.745C182.872 36.4476 183.151 37.3041 183.206 37.993C183.226 38.2328 183.216 38.4526 183.198 38.6376C182.846 38.4774 182.509 38.3379 182.2 38.2196C182.111 38.186 182.025 38.1544 181.942 38.1239C181.328 37.1132 180.756 35.9498 180.279 34.6161ZM189.79 32.9364C190.15 34.2521 190.604 35.4233 191.116 36.4637C191.074 36.4865 191.025 36.5132 190.972 36.5468C190.807 36.651 190.589 36.8121 190.364 37.0428C190.094 37.3186 189.817 37.6929 189.603 38.1825C189.36 38.0068 189.066 37.7773 188.782 37.5067C188.078 36.8373 187.569 36.0615 187.672 35.3221C187.785 34.515 188.342 33.8911 188.944 33.4471C189.238 33.2298 189.527 33.0672 189.742 32.9598C189.759 32.9517 189.775 32.9439 189.79 32.9364ZM179.053 29.0682C179.415 29.2795 179.834 29.5546 180.307 29.9149C181.177 30.5779 181.429 31.6767 181.424 32.7206C181.422 33.2317 181.357 33.7005 181.293 34.0419C181.292 34.0491 181.29 34.0563 181.288 34.0634C180.754 33.7213 180.257 33.4421 179.832 33.2196C179.479 31.97 179.208 30.59 179.053 29.0682ZM188.971 27.6591C189.052 29.2258 189.253 30.6521 189.544 31.9491C189.476 31.9793 189.392 32.0175 189.296 32.0653C189.044 32.1913 188.701 32.3822 188.349 32.6425C188.113 32.8164 187.866 33.0295 187.634 33.2792C187.455 33.1374 187.252 32.9602 187.054 32.7538C186.495 32.1704 186.07 31.4491 186.177 30.6786C186.23 30.3025 186.437 29.8993 186.768 29.4891C187.095 29.083 187.518 28.701 187.946 28.369C188.313 28.0837 188.677 27.8421 188.971 27.6591ZM179.036 23.6141C179.356 23.8287 179.727 24.0889 180.15 24.411C180.969 25.0349 181.072 26.1446 180.872 27.2841C180.776 27.8328 180.616 28.3398 180.48 28.7118C180.471 28.7357 180.46 28.7584 180.451 28.7811C179.876 28.3757 179.377 28.0879 178.958 27.8827C178.924 27.3033 178.906 26.7048 178.906 26.0868C178.906 25.225 178.951 24.4011 179.036 23.6141ZM189.221 22.4012C189.033 23.5424 188.93 24.7692 188.93 26.0868C188.93 26.2318 188.932 26.3756 188.934 26.5184C188.842 26.5705 188.724 26.6385 188.588 26.7206C188.252 26.9242 187.797 27.2182 187.332 27.579C187.084 27.7717 186.83 27.9879 186.586 28.2206C186.488 28.1197 186.383 28.0003 186.281 27.8641C185.917 27.3795 185.607 26.7083 185.722 25.8798C185.771 25.5306 186.022 25.0933 186.464 24.6024C186.895 24.124 187.457 23.6498 188.025 23.2264C188.446 22.9125 188.862 22.6305 189.221 22.4012ZM180.385 18.2596C180.635 18.426 180.923 18.6288 181.251 18.8788C181.636 19.1718 181.811 19.5834 181.839 20.0966C181.868 20.6244 181.737 21.231 181.528 21.828C181.321 22.419 181.049 22.9685 180.826 23.3729C180.786 23.4473 180.743 23.5147 180.706 23.578C180.103 23.1205 179.598 22.7773 179.185 22.5165C179.44 20.9447 179.856 19.5298 180.385 18.2596ZM190.722 17.496C190.219 18.5696 189.795 19.7567 189.487 21.0682C189.368 21.1372 189.218 21.2263 189.044 21.3329C188.609 21.6003 188.022 21.9799 187.426 22.4247C187.269 22.5421 187.109 22.6657 186.951 22.7928C186.92 22.7274 186.887 22.6538 186.856 22.5712C186.695 22.1461 186.553 21.4806 186.68 20.5673C186.725 20.2472 186.98 19.8565 187.464 19.4237C187.935 19.0037 188.553 18.6042 189.183 18.2557C189.734 17.9507 190.281 17.691 190.722 17.496ZM183.926 14.4198C184.062 14.5234 184.15 14.7129 184.021 15.1639C183.893 15.6105 183.588 16.1507 183.205 16.6962C182.829 17.2332 182.404 17.7403 182.07 18.1151C182.045 18.1431 182.018 18.1688 181.994 18.1952C181.951 18.1569 181.905 18.1192 181.858 18.0829C181.457 17.7778 181.107 17.5321 180.802 17.3348C181.46 15.9787 182.243 14.8031 183.079 13.7889C183.344 13.9835 183.629 14.1936 183.926 14.4198ZM193.732 13.0448C192.879 13.9609 192.062 15.0314 191.352 16.2782C191.318 16.1874 191.314 16.1729 191.313 16.1708H191.312C191.311 16.1711 191.309 16.1722 191.308 16.1727C191.305 16.1737 191.301 16.175 191.296 16.1766C191.286 16.1805 191.27 16.187 191.251 16.1942C191.213 16.2089 191.156 16.2309 191.086 16.2587C190.945 16.3148 190.741 16.3972 190.499 16.5018C190.093 16.6772 189.57 16.9186 189.021 17.2079C189.017 16.8347 189.043 16.3203 189.139 15.6346C189.156 15.5139 189.227 15.358 189.393 15.1698C189.559 14.9824 189.798 14.7863 190.103 14.5887C190.713 14.193 191.522 13.8291 192.346 13.5184C192.823 13.3388 193.298 13.1804 193.732 13.0448ZM187.588 9.8241C187.599 9.8493 187.605 9.87675 187.607 9.91003C187.611 10.0118 187.579 10.1729 187.471 10.4003C187.254 10.8555 186.82 11.4046 186.303 11.955C185.794 12.4968 185.235 13.0077 184.8 13.3846C184.701 13.4706 184.606 13.5468 184.523 13.6171C184.25 13.4091 183.986 13.2149 183.74 13.0331C185.032 11.6298 186.399 10.5811 187.588 9.8241ZM197.967 9.66687C197.132 10.1565 196.205 10.7833 195.274 11.5731C195.225 11.585 195.16 11.6026 195.079 11.6229C194.896 11.6694 194.634 11.7378 194.32 11.826C193.693 12.0024 192.85 12.2593 191.996 12.5809C192.142 12.3291 192.321 12.0248 192.537 11.6591C192.62 11.5196 192.795 11.3496 193.094 11.1639C193.387 10.9819 193.766 10.8053 194.208 10.6385C195.094 10.305 196.189 10.0267 197.265 9.80457C197.501 9.75578 197.736 9.71008 197.967 9.66687ZM188.492 9.39539C188.478 9.36616 188.461 9.33867 188.445 9.31042C188.649 9.19433 188.845 9.08709 189.031 8.99011L188.492 9.39539ZM201.247 8.16492C201.241 8.16564 201.234 8.16705 201.227 8.16785C201.166 8.1746 201.076 8.18467 200.963 8.19812C200.736 8.22519 200.409 8.26633 200.016 8.32117C199.229 8.43085 198.164 8.59779 197.063 8.82507C197.028 8.83228 196.992 8.8402 196.957 8.84753L197.602 8.16003H201.264C201.264 8.16003 201.258 8.16174 201.247 8.16492Z" fill="white"/>
<path d="M164.034 44.1543H154.499L163.793 16.2851H151.484L154.189 8.03894H189.24L188.544 8.37076C185.117 10.0053 182.389 12.8129 180.854 16.2853L173.701 16.2851L164.034 44.1543Z" fill="white"/>
<path d="M75.1386 44.1533H65.604L74.8983 16.2841H62.5884L65.2936 8.03796H99.9728L97.0459 16.2841H84.8062L75.1386 44.1533Z" fill="white"/>
<path d="M9.77325 44.1533L16.4092 21.2919H25.1111L24.172 24.3074H35.8788C35.8788 24.3074 38.1326 23.5382 39.3966 20.2608C40.6605 16.9835 38.1326 16.1727 38.1326 16.1727H13.1538L15.4702 8.03796H29.775H40.0672C42.7356 8.03796 45.7543 8.17514 47.1899 10.4244C48.2637 12.1068 48.9652 14.9353 47.9265 19.6517C46.6151 25.6062 44.148 28.9394 42.2846 30.6985C40.8409 32.0614 38.8301 32.4421 36.8447 32.4421H21.9183L18.5377 44.1533H9.77325Z" fill="white"/>
<path d="M51.8629 44.1532H42.3283L53.6805 8.03796L63.5884 8.03803L51.8629 44.1532Z" fill="white"/>
<path d="M87.1069 44.1532H82.7184L84.0164 40.1508L88.4475 40.1508L87.1069 44.1532Z" fill="white"/>
<path d="M95.9344 44.1532H91.546L92.8439 40.1508L97.275 40.1508L95.9344 44.1532Z" fill="white"/>
<path d="M104.762 44.1532H100.373L101.671 40.1508L106.103 40.1508L104.762 44.1532Z" fill="white"/>
<path d="M113.589 44.1532H109.201L110.499 40.1508L114.93 40.1508L113.589 44.1532Z" fill="white"/>
<path d="M122.417 44.1532H118.029L119.326 40.1508L123.758 40.1508L122.417 44.1532Z" fill="white"/>
<path d="M84.0084 40.1508H79.62L80.9179 36.1483L85.3491 36.1483L84.0084 40.1508Z" fill="white"/>
<path d="M92.836 40.1508H88.4475L89.7454 36.1483L94.1766 36.1483L92.836 40.1508Z" fill="white"/>
<path d="M101.663 40.1508H97.275L98.573 36.1483L103.004 36.1483L101.663 40.1508Z" fill="white"/>
<path d="M110.491 40.1508H106.103L107.4 36.1483L111.832 36.1483L110.491 40.1508Z" fill="white"/>
<path d="M119.319 40.1508H114.93L116.228 36.1483L120.659 36.1483L119.319 40.1508Z" fill="white"/>
<path d="M190.068 25.0534C190.936 15.0977 198.299 7.4941 206.514 8.06997C208.664 8.22068 210.658 8.91707 212.417 10.0407L211.874 12.0426C210.428 10.9748 208.767 10.3214 206.967 10.2057C200.497 9.7898 194.692 16.469 194 25.1237C193.308 33.7787 197.785 41.3346 204.255 41.7506C205.618 41.8382 206.96 41.6007 208.237 41.0924L207.534 43.7165C206.191 44.0772 204.794 44.2234 203.372 44.1237C195.157 43.5477 189.2 35.0093 190.068 25.0534ZM212.999 10.4352C217.617 13.7359 220.433 20.0805 219.818 27.1393C219.124 35.0948 214.283 41.5485 208.174 43.527L208.905 40.7995C213.377 38.6477 216.91 33.1415 217.43 26.6305C217.904 20.7035 215.856 15.3872 212.44 12.4909L212.999 10.4352Z" fill="url(#paint1_linear_52_53)"/>
<path d="M207.957 44.1533L214.593 21.2919H223.295L222.356 24.3074H234.063C234.063 24.3074 236.316 23.5382 237.58 20.2608C238.844 16.9835 236.316 16.1727 236.316 16.1727H211.338L213.654 8.03796H227.959H238.251C240.919 8.03796 243.938 8.17514 245.374 10.4244C246.447 12.1068 247.149 14.9353 246.11 19.6517C244.799 25.6062 242.332 28.9394 240.468 30.6985C239.025 32.0614 237.014 32.4421 235.028 32.4421H220.102L216.721 44.1533H207.957Z" fill="white"/>
<defs>
<linearGradient id="paint0_linear_52_53" x1="120.169" y1="40.3384" x2="86.0608" y2="42.0188" gradientUnits="userSpaceOnUse">
<stop stop-color="white"/>
<stop offset="0.528846" stop-color="white" stop-opacity="0.471154"/>
<stop offset="1" stop-color="#666666" stop-opacity="0"/>
</linearGradient>
<linearGradient id="paint1_linear_52_53" x1="206.742" y1="25.6668" x2="240.926" y2="28.7757" gradientUnits="userSpaceOnUse">
<stop stop-color="white"/>
<stop offset="1" stop-color="#666666" stop-opacity="0"/>
</linearGradient>
</defs>
</svg>
