<svg width="256" height="51" viewBox="0 0 256 51" fill="none" xmlns="http://www.w3.org/2000/svg">
<path d="M127.805 8.03796H152.833L150.031 16.278H128.44C128.44 16.278 126.337 16.1196 125.515 18.7005C124.693 21.2814 126.379 21.836 126.379 21.836H141.377C141.377 21.836 150.297 22.3923 146.67 33.0702C143.042 43.7481 133.62 44.1533 133.62 44.1533H71.8997L74.6543 36.1224H133.62C133.62 36.1224 136.277 35.6646 136.705 33.2594C137.134 30.8543 134.823 30.3572 134.823 30.3572H121.175C121.175 30.3572 111.53 29.3631 115.583 18.7005C119.637 8.03796 127.805 8.03796 127.805 8.03796Z" fill="url(#paint0_linear_35_113)"/>
<path d="M192.908 8.16003C192.674 8.33994 192.402 8.55373 192.103 8.80261C191.07 9.6622 189.693 10.931 188.319 12.5702C185.573 15.8446 182.804 20.6342 182.843 26.6132C182.882 32.5544 185.035 37.1734 187.174 40.3016C188.243 41.8656 189.311 43.0602 190.113 43.8651C190.171 43.9239 190.231 43.9784 190.286 44.0331H188.769L187.903 43.7606C187.897 43.707 187.892 43.644 187.881 43.5741C187.843 43.3386 187.768 43.0134 187.621 42.6356C187.327 41.8761 186.745 40.9133 185.607 40.0458C185.138 39.6889 184.637 39.378 184.139 39.1073C184.143 39.0837 184.15 39.0595 184.155 39.0341C184.202 38.7543 184.24 38.3624 184.203 37.913C184.13 37.004 183.75 35.8588 182.556 34.9491C182.43 34.8531 182.304 34.7597 182.18 34.6698C182.207 34.561 182.242 34.4098 182.277 34.2264C182.348 33.8442 182.421 33.3134 182.423 32.7255C182.428 31.6906 182.21 30.3776 181.268 29.4325C181.311 29.3291 181.364 29.203 181.418 29.0565C181.568 28.6486 181.747 28.0812 181.857 27.4559C182.023 26.5066 182.047 25.2913 181.423 24.3339C181.497 24.2129 181.595 24.0507 181.702 23.8553C181.941 23.4216 182.24 22.8189 182.472 22.1581C182.701 21.5032 182.877 20.7561 182.838 20.0428C182.819 19.691 182.745 19.3419 182.599 19.0165C182.665 18.9451 182.739 18.8674 182.816 18.7811C183.164 18.3901 183.618 17.8511 184.025 17.2704C184.426 16.6982 184.809 16.0478 184.983 15.4384C185.07 15.1338 185.113 14.7968 185.055 14.4764C185.169 14.382 185.305 14.27 185.454 14.1405C185.903 13.7516 186.49 13.2164 187.032 12.6405C187.565 12.0729 188.087 11.4309 188.373 10.83C188.395 10.7849 188.412 10.7377 188.432 10.6913L191.802 8.16003H192.908ZM195.186 9.27429C194.719 9.40455 194.269 9.54717 193.855 9.703C193.377 9.88311 192.933 10.0857 192.565 10.3143C192.203 10.5392 191.876 10.8134 191.676 11.1503C191.11 12.1052 190.802 12.6471 190.635 12.952C190.566 13.0787 190.519 13.1669 190.489 13.2274C190.158 13.3911 189.842 13.5656 189.558 13.7499C189.209 13.9765 188.888 14.2288 188.642 14.5077C188.396 14.7856 188.201 15.1175 188.148 15.4969C188.004 16.5266 188.002 17.2293 188.04 17.6874C188.043 17.713 188.047 17.7384 188.049 17.7626C187.603 18.04 187.167 18.347 186.797 18.6776C186.263 19.1553 185.784 19.7482 185.689 20.4286C185.537 21.517 185.703 22.3519 185.919 22.9247C186.003 23.146 186.095 23.3265 186.176 23.4667C186.016 23.6191 185.863 23.7752 185.72 23.9335C185.239 24.4675 184.822 25.0904 184.731 25.7421C184.567 26.9156 185.016 27.8474 185.48 28.4647C185.625 28.6585 185.775 28.8244 185.911 28.9608C185.556 29.4229 185.267 29.9578 185.186 30.5409C185.014 31.7726 185.705 32.7906 186.331 33.4452C186.578 33.7028 186.829 33.9191 187.044 34.0878C186.869 34.4122 186.738 34.777 186.681 35.1835C186.505 36.4464 187.361 37.5365 188.091 38.2313C188.473 38.5946 188.862 38.8888 189.154 39.0917C189.205 39.1271 189.254 39.1583 189.299 39.1884C189.288 39.2486 189.28 39.3104 189.271 39.3729C189.176 40.0549 189.449 40.6611 189.826 41.1493C190.204 41.6367 190.721 42.0541 191.218 42.3885C191.72 42.7256 192.227 42.9948 192.606 43.1786C192.685 43.2169 192.76 43.2491 192.827 43.2802C192.865 43.5545 192.945 43.8014 193.023 43.994C193.028 44.0073 193.035 44.0201 193.04 44.0331H191.752C191.749 44.0306 191.746 44.0278 191.743 44.0253C191.523 43.833 191.205 43.5435 190.822 43.1591C190.055 42.3895 189.028 41.2419 187.999 39.7372C185.942 36.7279 183.88 32.3002 183.843 26.6073C183.806 20.9519 186.425 16.3849 189.084 13.2128C190.412 11.629 191.744 10.4018 192.742 9.57117C193.241 9.15615 193.657 8.84035 193.946 8.62976C194.09 8.52469 194.203 8.44558 194.279 8.39343C194.316 8.36761 194.345 8.34837 194.364 8.33582C194.373 8.32957 194.38 8.32404 194.384 8.32117C194.386 8.31979 194.388 8.31881 194.389 8.31824H194.39L194.286 8.16003H196.23L195.186 9.27429ZM194.666 41.3231C196.797 43.3391 198.704 44.0331 198.704 44.0331H194.112L194.148 44.0087V44.0096H194.149L194.147 44.0077C194.145 44.0044 194.141 43.998 194.136 43.9901C194.126 43.9734 194.109 43.9464 194.09 43.912C194.051 43.8418 193.998 43.7399 193.95 43.619C193.847 43.3667 193.777 43.0749 193.814 42.8134C193.85 42.555 194.055 42.1713 194.31 41.7997C194.429 41.6262 194.546 41.4729 194.633 41.3641C194.645 41.3497 194.656 41.336 194.666 41.3231ZM182.968 39.6327C183.649 39.9546 184.363 40.3553 185 40.8407C185.978 41.5854 186.455 42.3915 186.69 42.9969C186.728 43.0956 186.759 43.1897 186.785 43.2772C185.782 42.6067 184.343 41.447 182.968 39.6327ZM191.581 37.3485C192.318 38.658 193.142 39.732 193.959 40.6083C193.931 40.6416 193.895 40.6864 193.853 40.7391C193.755 40.8616 193.622 41.0346 193.486 41.2333C193.303 41.4998 193.081 41.8592 192.943 42.2294C192.605 42.0615 192.185 41.8335 191.776 41.5585C191.321 41.2528 190.902 40.9049 190.617 40.537C190.334 40.1698 190.218 39.8296 190.262 39.5106C190.385 38.6266 190.754 38.0726 191.077 37.7421C191.241 37.575 191.396 37.4619 191.506 37.3925C191.534 37.3748 191.56 37.3607 191.581 37.3485ZM180.279 34.6161C180.795 34.9255 181.366 35.2999 181.951 35.745C182.872 36.4476 183.151 37.3041 183.206 37.993C183.226 38.2328 183.216 38.4526 183.198 38.6376C182.846 38.4774 182.509 38.3379 182.2 38.2196C182.111 38.186 182.025 38.1544 181.942 38.1239C181.328 37.1132 180.756 35.9498 180.279 34.6161ZM189.79 32.9364C190.15 34.2521 190.604 35.4233 191.116 36.4637C191.074 36.4865 191.024 36.5131 190.971 36.5468C190.806 36.651 190.588 36.812 190.363 37.0428C190.093 37.3187 189.816 37.6928 189.602 38.1825C189.359 38.0068 189.065 37.7773 188.781 37.5067C188.077 36.8374 187.568 36.0614 187.671 35.3221C187.784 34.515 188.342 33.8912 188.943 33.4471C189.237 33.2297 189.526 33.0672 189.742 32.9598C189.758 32.9516 189.775 32.944 189.79 32.9364ZM179.053 29.0682C179.415 29.2795 179.834 29.5546 180.307 29.9149C181.177 30.5779 181.429 31.6767 181.424 32.7206C181.422 33.2317 181.357 33.7005 181.293 34.0419C181.292 34.0491 181.29 34.0563 181.288 34.0634C180.754 33.7213 180.257 33.4421 179.832 33.2196C179.479 31.97 179.208 30.59 179.053 29.0682ZM188.971 27.6581C189.052 29.2248 189.253 30.6511 189.544 31.9481C189.476 31.9784 189.392 32.0173 189.295 32.0653C189.043 32.1913 188.7 32.3821 188.348 32.6425C188.112 32.8164 187.865 33.0295 187.633 33.2792C187.454 33.1374 187.251 32.9601 187.053 32.7538C186.495 32.1704 186.069 31.4489 186.176 30.6786C186.229 30.3025 186.436 29.8993 186.767 29.4891C187.094 29.0829 187.517 28.7011 187.945 28.369C188.313 28.0834 188.676 27.8412 188.971 27.6581ZM179.036 23.6141C179.356 23.8287 179.727 24.0889 180.15 24.411C180.969 25.0349 181.072 26.1446 180.872 27.2841C180.776 27.8328 180.616 28.3398 180.48 28.7118C180.471 28.7357 180.46 28.7584 180.451 28.7811C179.876 28.3757 179.377 28.0879 178.958 27.8827C178.924 27.3033 178.906 26.7048 178.906 26.0868C178.906 25.225 178.951 24.4011 179.036 23.6141ZM189.221 22.4012C189.033 23.5424 188.93 24.7692 188.93 26.0868C188.93 26.2318 188.932 26.3756 188.934 26.5184C188.842 26.5705 188.723 26.6383 188.587 26.7206C188.251 26.9242 187.796 27.2182 187.331 27.579C187.083 27.7717 186.829 27.9878 186.585 28.2206C186.487 28.1197 186.382 28.0002 186.28 27.8641C185.916 27.3795 185.606 26.7081 185.721 25.8798C185.77 25.5306 186.021 25.0933 186.463 24.6024C186.894 24.1239 187.456 23.6499 188.024 23.2264C188.445 22.9124 188.862 22.6305 189.221 22.4012ZM180.385 18.2596C180.635 18.426 180.923 18.6288 181.251 18.8788C181.636 19.1718 181.811 19.5834 181.839 20.0966C181.868 20.6244 181.737 21.231 181.528 21.828C181.321 22.419 181.049 22.9685 180.826 23.3729C180.786 23.4473 180.743 23.5147 180.706 23.578C180.103 23.1205 179.598 22.7773 179.185 22.5165C179.44 20.9447 179.856 19.5298 180.385 18.2596ZM190.722 17.496C190.219 18.5696 189.795 19.7567 189.487 21.0682C189.368 21.1372 189.217 21.2261 189.043 21.3329C188.608 21.6004 188.021 21.9799 187.425 22.4247C187.268 22.5421 187.109 22.6657 186.951 22.7928C186.919 22.7275 186.886 22.6537 186.855 22.5712C186.694 22.1461 186.552 21.4804 186.679 20.5673C186.724 20.2472 186.979 19.8565 187.463 19.4237C187.934 19.0036 188.552 18.6043 189.182 18.2557C189.733 17.9505 190.281 17.691 190.722 17.496ZM183.926 14.4198C184.062 14.5234 184.15 14.7129 184.021 15.1639C183.893 15.6105 183.588 16.1507 183.205 16.6962C182.829 17.2332 182.404 17.7403 182.07 18.1151C182.045 18.1431 182.018 18.1688 181.994 18.1952C181.951 18.1569 181.905 18.1192 181.858 18.0829C181.457 17.7778 181.107 17.5321 180.802 17.3348C181.46 15.9787 182.243 14.8031 183.079 13.7889C183.344 13.9835 183.629 14.1936 183.926 14.4198ZM193.732 13.0448C192.878 13.961 192.062 15.0321 191.352 16.2792C191.318 16.1871 191.313 16.1728 191.312 16.1708H191.311C191.31 16.1712 191.308 16.1723 191.307 16.1727C191.304 16.1737 191.3 16.175 191.295 16.1766C191.285 16.1805 191.269 16.187 191.25 16.1942C191.212 16.2089 191.155 16.2309 191.085 16.2587C190.944 16.3149 190.741 16.3972 190.498 16.5018C190.092 16.6772 189.569 16.9186 189.02 17.2079C189.016 16.8347 189.042 16.3203 189.138 15.6346C189.155 15.5139 189.226 15.358 189.392 15.1698C189.558 14.9824 189.797 14.7863 190.102 14.5887C190.712 14.1929 191.521 13.8291 192.345 13.5184C192.822 13.3387 193.297 13.1805 193.732 13.0448ZM187.588 9.8241C187.599 9.8493 187.605 9.87675 187.607 9.91003C187.611 10.0118 187.579 10.1729 187.471 10.4003C187.254 10.8555 186.82 11.4046 186.303 11.955C185.794 12.4968 185.235 13.0077 184.8 13.3846C184.701 13.4706 184.606 13.5468 184.523 13.6171C184.25 13.4091 183.986 13.2149 183.74 13.0331C185.032 11.6298 186.399 10.5811 187.588 9.8241ZM197.967 9.66687C197.132 10.1564 196.206 10.7835 195.275 11.5731C195.226 11.5851 195.16 11.6024 195.078 11.6229C194.895 11.6694 194.633 11.7377 194.319 11.826C193.692 12.0024 192.849 12.2593 191.995 12.5809C192.141 12.3291 192.32 12.0249 192.536 11.6591C192.619 11.5196 192.794 11.3496 193.093 11.1639C193.386 10.9819 193.765 10.8054 194.207 10.6385C195.093 10.305 196.187 10.0268 197.264 9.80457C197.501 9.75573 197.736 9.71011 197.967 9.66687ZM188.492 9.39539C188.478 9.36616 188.461 9.33867 188.445 9.31042C188.649 9.19433 188.845 9.08709 189.031 8.99011L188.492 9.39539ZM201.248 8.16492C201.241 8.1657 201.234 8.16698 201.226 8.16785C201.165 8.17461 201.075 8.18467 200.962 8.19812C200.735 8.22521 200.408 8.26633 200.015 8.32117C199.228 8.43086 198.163 8.59778 197.062 8.82507C197.027 8.83229 196.991 8.8402 196.956 8.84753L197.601 8.16003H201.264C201.264 8.16003 201.258 8.16192 201.248 8.16492Z" fill="black"/>
<path d="M164.034 44.1543H154.499L163.793 16.2851H151.484L154.189 8.03894H189.24L188.544 8.37076C185.117 10.0053 182.389 12.8129 180.854 16.2853L173.701 16.2851L164.034 44.1543Z" fill="black"/>
<path d="M75.1386 44.1533H65.604L74.8983 16.2841H62.5884L65.2936 8.03796H99.9728L97.0459 16.2841H84.8062L75.1386 44.1533Z" fill="black"/>
<path d="M9.77325 44.1533L16.4092 21.2919H25.1111L24.172 24.3074H35.8788C35.8788 24.3074 38.1326 23.5382 39.3966 20.2608C40.6605 16.9835 38.1326 16.1727 38.1326 16.1727H13.1538L15.4702 8.03796H29.775H40.0672C42.7356 8.03796 45.7543 8.17514 47.1899 10.4244C48.2637 12.1068 48.9652 14.9353 47.9265 19.6517C46.6151 25.6062 44.148 28.9394 42.2846 30.6985C40.8409 32.0614 38.8301 32.4421 36.8447 32.4421H21.9183L18.5377 44.1533H9.77325Z" fill="black"/>
<path d="M51.8629 44.1532H42.3283L53.6805 8.03796L63.5884 8.03803L51.8629 44.1532Z" fill="black"/>
<path d="M87.1069 44.1532H82.7184L84.0164 40.1508L88.4475 40.1508L87.1069 44.1532Z" fill="black"/>
<path d="M95.9344 44.1532H91.546L92.8439 40.1508L97.275 40.1508L95.9344 44.1532Z" fill="black"/>
<path d="M104.762 44.1532H100.373L101.671 40.1508L106.103 40.1508L104.762 44.1532Z" fill="black"/>
<path d="M113.589 44.1532H109.201L110.499 40.1508L114.93 40.1508L113.589 44.1532Z" fill="black"/>
<path d="M122.417 44.1532H118.029L119.326 40.1508L123.758 40.1508L122.417 44.1532Z" fill="black"/>
<path d="M84.0084 40.1508H79.62L80.9179 36.1483L85.3491 36.1483L84.0084 40.1508Z" fill="black"/>
<path d="M92.836 40.1508H88.4475L89.7454 36.1483L94.1766 36.1483L92.836 40.1508Z" fill="black"/>
<path d="M101.663 40.1508H97.275L98.573 36.1483L103.004 36.1483L101.663 40.1508Z" fill="black"/>
<path d="M110.491 40.1508H106.103L107.4 36.1483L111.832 36.1483L110.491 40.1508Z" fill="black"/>
<path d="M119.319 40.1508H114.93L116.228 36.1483L120.659 36.1483L119.319 40.1508Z" fill="black"/>
<path d="M190.068 25.0537C190.936 15.0979 198.299 7.49351 206.514 8.06936C208.664 8.22009 210.659 8.91695 212.417 10.041L211.874 12.043C210.428 10.9752 208.767 10.3218 206.967 10.2061C200.497 9.79013 194.691 16.4691 194 25.124C193.308 33.779 197.785 41.334 204.255 41.75C205.618 41.8376 206.96 41.6 208.237 41.0918L207.534 43.7158C206.191 44.0765 204.794 44.2228 203.372 44.1231C195.157 43.5471 189.2 35.0097 190.068 25.0537ZM212.999 10.4346C217.617 13.7355 220.433 20.0808 219.818 27.1397C219.124 35.0951 214.283 41.5481 208.174 43.5264L208.905 40.7989C213.377 38.6473 216.91 33.1417 217.43 26.6309C217.904 20.7038 215.856 15.3876 212.44 12.4912L212.999 10.4346Z" fill="url(#paint1_linear_35_113)"/>
<path d="M207.957 44.1533L214.593 21.2919H223.295L222.356 24.3074H234.063C234.063 24.3074 236.316 23.5382 237.58 20.2608C238.844 16.9835 236.316 16.1727 236.316 16.1727H211.338L213.654 8.03796H227.959H238.251C240.919 8.03796 243.938 8.17514 245.374 10.4244C246.447 12.1068 247.149 14.9353 246.11 19.6517C244.799 25.6062 242.332 28.9394 240.468 30.6985C239.025 32.0614 237.014 32.4421 235.028 32.4421H220.102L216.721 44.1533H207.957Z" fill="black"/>
<defs>
<linearGradient id="paint0_linear_35_113" x1="121.572" y1="40.1399" x2="86.0608" y2="42.0188" gradientUnits="userSpaceOnUse">
<stop/>
<stop offset="0.528846" stop-opacity="0.471154"/>
<stop offset="1" stop-color="#666666" stop-opacity="0"/>
</linearGradient>
<linearGradient id="paint1_linear_35_113" x1="206.742" y1="25.6662" x2="240.926" y2="28.7751" gradientUnits="userSpaceOnUse">
<stop/>
<stop offset="1" stop-color="#666666" stop-opacity="0"/>
</linearGradient>
</defs>
</svg>
